{
	"asset":{
		"generator":"Khronos glTF Blender I/O v4.0.44",
		"version":"2.0"
	},
	"scene":0,
	"scenes":[
		{
			"name":"Scene",
			"nodes":[
				0
			]
		}
	],
	"nodes":[
		{
			"mesh":0,
			"name":"Shield"
		}
	],
	"materials":[
		{
			"doubleSided":true,
			"name":"Shield",
			"pbrMetallicRoughness":{
				"metallicFactor":0,
				"roughnessFactor":0.5
			}
		}
	],
	"meshes":[
		{
			"name":"Baze_low",
			"primitives":[
				{
					"attributes":{
						"POSITION":0,
						"NORMAL":1,
						"TEXCOORD_0":2
					},
					"indices":3,
					"material":0
				}
			]
		}
	],
	"accessors":[
		{
			"bufferView":0,
			"componentType":5126,
			"count":1353,
			"max":[
				0.2522205114364624,
				0.22936654090881348,
				0.0527532622218132
			],
			"min":[
				-0.22307777404785156,
				-0.3913736939430237,
				-0.0832730159163475
			],
			"type":"VEC3"
		},
		{
			"bufferView":1,
			"componentType":5126,
			"count":1353,
			"type":"VEC3"
		},
		{
			"bufferView":2,
			"componentType":5126,
			"count":1353,
			"type":"VEC2"
		},
		{
			"bufferView":3,
			"componentType":5123,
			"count":6702,
			"type":"SCALAR"
		}
	],
	"bufferViews":[
		{
			"buffer":0,
			"byteLength":16236,
			"byteOffset":0,
			"target":34962
		},
		{
			"buffer":0,
			"byteLength":16236,
			"byteOffset":16236,
			"target":34962
		},
		{
			"buffer":0,
			"byteLength":10824,
			"byteOffset":32472,
			"target":34962
		},
		{
			"buffer":0,
			"byteLength":13404,
			"byteOffset":43296,
			"target":34963
		}
	],
	"buffers":[
		{
			"byteLength":56700,
			"uri":"untitled.bin"
		}
	]
}
